<svg xmlns="http://www.w3.org/2000/svg" xmlns:xlink="http://www.w3.org/1999/xlink" version="1.1" style="" xml:space="preserve" width="490.8999938964844" height="490.8999938964844"><rect id="backgroundrect" width="100%" height="100%" x="0" y="0" fill="none" stroke="none"/>
<g class="currentLayer" style=""><title>Layer 1</title><g id="svg_1" class="selected" fill="#eb1a1a" fill-opacity="1">
	<g id="svg_2" fill="#eb1a1a" fill-opacity="1">
		<path d="M245.5,323.4235601663589 c53,0 96.2,-43.2 96.2,-96.2 V96.72356016635895 c0,-53 -43.2,-96.2 -96.2,-96.2 s-96.2,43.2 -96.2,96.2 v130.5 C149.3,280.32356016635896 192.5,323.4235601663589 245.5,323.4235601663589 zM173.8,96.72356016635895 c0,-39.5 32.2,-71.7 71.7,-71.7 s71.7,32.2 71.7,71.7 v130.5 c0,39.5 -32.2,71.7 -71.7,71.7 s-71.7,-32.2 -71.7,-71.7 V96.72356016635895 z" id="svg_3" fill="#eb1a1a" fill-opacity="1"/>
		<path d="M94.4,215.02356016635895 c-6.8,0 -12.3,5.5 -12.3,12.3 c0,85.9 66.7,156.6 151.1,162.8 v76.7 h-63.9 c-6.8,0 -12.3,5.5 -12.3,12.3 s5.5,12.3 12.3,12.3 h152.3 c6.8,0 12.3,-5.5 12.3,-12.3 s-5.5,-12.3 -12.3,-12.3 h-63.9 v-76.7 c84.4,-6.3 151.1,-76.9 151.1,-162.8 c0,-6.8 -5.5,-12.3 -12.3,-12.3 s-12.3,5.5 -12.3,12.3 c0,76.6 -62.3,138.9 -138.9,138.9 s-138.9,-62.3 -138.9,-138.9 C106.6,220.52356016635895 101.2,215.02356016635895 94.4,215.02356016635895 z" id="svg_4" fill="#eb1a1a" fill-opacity="1"/>
	</g>
</g><g id="svg_5">
</g><g id="svg_6">
</g><g id="svg_7">
</g><g id="svg_8">
</g><g id="svg_9">
</g><g id="svg_10">
</g><g id="svg_11">
</g><g id="svg_12">
</g><g id="svg_13">
</g><g id="svg_14">
</g><g id="svg_15">
</g><g id="svg_16">
</g><g id="svg_17">
</g><g id="svg_18">
</g><g id="svg_19">
</g></g></svg>
